<svg id="visual" viewBox="0 0 1360 768" width="1360" height="768" xmlns="http://www.w3.org/2000/svg" xmlns:xlink="http://www.w3.org/1999/xlink" version="1.1"><rect x="0" y="0" width="1360" height="768" fill="#001525"></rect><path d="M0 241L17.5 214.5C35 188 70 135 104.8 126.5C139.7 118 174.3 154 209.2 170.3C244 186.7 279 183.3 313.8 219.5C348.7 255.7 383.3 331.3 418.2 317.2C453 303 488 199 523 158.2C558 117.3 593 139.7 627.8 177.8C662.7 216 697.3 270 732.2 263.2C767 256.3 802 188.7 837 174.3C872 160 907 199 941.8 205.2C976.7 211.3 1011.3 184.7 1046.2 217.3C1081 250 1116 342 1150.8 345.5C1185.7 349 1220.3 264 1255.2 233.3C1290 202.7 1325 226.3 1342.5 238.2L1360 250L1360 769L1342.5 769C1325 769 1290 769 1255.2 769C1220.3 769 1185.7 769 1150.8 769C1116 769 1081 769 1046.2 769C1011.3 769 976.7 769 941.8 769C907 769 872 769 837 769C802 769 767 769 732.2 769C697.3 769 662.7 769 627.8 769C593 769 558 769 523 769C488 769 453 769 418.2 769C383.3 769 348.7 769 313.8 769C279 769 244 769 209.2 769C174.3 769 139.7 769 104.8 769C70 769 35 769 17.5 769L0 769Z" fill="#fa7268"></path><path d="M0 284L17.5 289.2C35 294.3 70 304.7 104.8 322.7C139.7 340.7 174.3 366.3 209.2 349C244 331.7 279 271.3 313.8 277.5C348.7 283.7 383.3 356.3 418.2 378.8C453 401.3 488 373.7 523 354.8C558 336 593 326 627.8 304.8C662.7 283.7 697.3 251.3 732.2 232.7C767 214 802 209 837 239.8C872 270.7 907 337.3 941.8 344.3C976.7 351.3 1011.3 298.7 1046.2 280.7C1081 262.7 1116 279.3 1150.8 276C1185.7 272.7 1220.3 249.3 1255.2 239.5C1290 229.7 1325 233.3 1342.5 235.2L1360 237L1360 769L1342.5 769C1325 769 1290 769 1255.2 769C1220.3 769 1185.7 769 1150.8 769C1116 769 1081 769 1046.2 769C1011.3 769 976.7 769 941.8 769C907 769 872 769 837 769C802 769 767 769 732.2 769C697.3 769 662.7 769 627.8 769C593 769 558 769 523 769C488 769 453 769 418.2 769C383.3 769 348.7 769 313.8 769C279 769 244 769 209.2 769C174.3 769 139.7 769 104.8 769C70 769 35 769 17.5 769L0 769Z" fill="#cf5563"></path><path d="M0 341L17.5 346C35 351 70 361 104.8 345.2C139.7 329.3 174.3 287.7 209.2 267C244 246.3 279 246.7 313.8 291.7C348.7 336.7 383.3 426.3 418.2 456.2C453 486 488 456 523 440C558 424 593 422 627.8 417.3C662.7 412.7 697.3 405.3 732.2 392.7C767 380 802 362 837 335C872 308 907 272 941.8 275.7C976.7 279.3 1011.3 322.7 1046.2 338.2C1081 353.7 1116 341.3 1150.8 327.2C1185.7 313 1220.3 297 1255.2 281.5C1290 266 1325 251 1342.5 243.5L1360 236L1360 769L1342.5 769C1325 769 1290 769 1255.2 769C1220.3 769 1185.7 769 1150.8 769C1116 769 1081 769 1046.2 769C1011.3 769 976.7 769 941.8 769C907 769 872 769 837 769C802 769 767 769 732.2 769C697.3 769 662.7 769 627.8 769C593 769 558 769 523 769C488 769 453 769 418.2 769C383.3 769 348.7 769 313.8 769C279 769 244 769 209.2 769C174.3 769 139.7 769 104.8 769C70 769 35 769 17.5 769L0 769Z" fill="#a23d5a"></path><path d="M0 561L17.5 556.7C35 552.3 70 543.7 104.8 523.7C139.7 503.7 174.3 472.3 209.2 468C244 463.7 279 486.3 313.8 476.8C348.7 467.3 383.3 425.7 418.2 394.5C453 363.3 488 342.7 523 351.8C558 361 593 400 627.8 419.8C662.7 439.7 697.3 440.3 732.2 450.8C767 461.3 802 481.7 837 479.7C872 477.7 907 453.3 941.8 434.3C976.7 415.3 1011.3 401.7 1046.2 385.5C1081 369.3 1116 350.7 1150.8 369.8C1185.7 389 1220.3 446 1255.2 474.2C1290 502.3 1325 501.7 1342.5 501.3L1360 501L1360 769L1342.5 769C1325 769 1290 769 1255.2 769C1220.3 769 1185.7 769 1150.8 769C1116 769 1081 769 1046.2 769C1011.3 769 976.7 769 941.8 769C907 769 872 769 837 769C802 769 767 769 732.2 769C697.3 769 662.7 769 627.8 769C593 769 558 769 523 769C488 769 453 769 418.2 769C383.3 769 348.7 769 313.8 769C279 769 244 769 209.2 769C174.3 769 139.7 769 104.8 769C70 769 35 769 17.5 769L0 769Z" fill="#7d2d4e"></path><path d="M0 398L17.5 433.8C35 469.7 70 541.3 104.8 556.5C139.7 571.7 174.3 530.3 209.2 504C244 477.7 279 466.3 313.8 487.2C348.7 508 383.3 561 418.2 578.5C453 596 488 578 523 569C558 560 593 560 627.8 553.2C662.7 546.3 697.3 532.7 732.2 518C767 503.3 802 487.7 837 486.7C872 485.7 907 499.3 941.8 496.2C976.7 493 1011.3 473 1046.2 463.2C1081 453.3 1116 453.7 1150.8 454.3C1185.7 455 1220.3 456 1255.2 479.5C1290 503 1325 549 1342.5 572L1360 595L1360 769L1342.5 769C1325 769 1290 769 1255.2 769C1220.3 769 1185.7 769 1150.8 769C1116 769 1081 769 1046.2 769C1011.3 769 976.7 769 941.8 769C907 769 872 769 837 769C802 769 767 769 732.2 769C697.3 769 662.7 769 627.8 769C593 769 558 769 523 769C488 769 453 769 418.2 769C383.3 769 348.7 769 313.8 769C279 769 244 769 209.2 769C174.3 769 139.7 769 104.8 769C70 769 35 769 17.5 769L0 769Z" fill="#7d2d4e"></path><path d="M0 624L17.5 625.5C35 627 70 630 104.8 605C139.7 580 174.3 527 209.2 498.7C244 470.3 279 466.7 313.8 490.5C348.7 514.3 383.3 565.7 418.2 594.7C453 623.7 488 630.3 523 622.7C558 615 593 593 627.8 575.2C662.7 557.3 697.3 543.7 732.2 526.8C767 510 802 490 837 498.7C872 507.3 907 544.7 941.8 568.2C976.7 591.7 1011.3 601.3 1046.2 589.2C1081 577 1116 543 1150.8 539C1185.7 535 1220.3 561 1255.2 553C1290 545 1325 503 1342.5 482L1360 461L1360 769L1342.5 769C1325 769 1290 769 1255.2 769C1220.3 769 1185.7 769 1150.8 769C1116 769 1081 769 1046.2 769C1011.3 769 976.7 769 941.8 769C907 769 872 769 837 769C802 769 767 769 732.2 769C697.3 769 662.7 769 627.8 769C593 769 558 769 523 769C488 769 453 769 418.2 769C383.3 769 348.7 769 313.8 769C279 769 244 769 209.2 769C174.3 769 139.7 769 104.8 769C70 769 35 769 17.5 769L0 769Z" fill="#a23d5a"></path><path d="M0 662L17.5 641.8C35 621.7 70 581.3 104.8 574C139.7 566.7 174.3 592.3 209.2 601.2C244 610 279 602 313.8 595.3C348.7 588.7 383.3 583.3 418.2 600.8C453 618.3 488 658.7 523 674.2C558 689.7 593 680.3 627.8 674.3C662.7 668.3 697.3 665.7 732.2 671.3C767 677 802 691 837 685.7C872 680.3 907 655.7 941.8 644.3C976.7 633 1011.3 635 1046.2 635.8C1081 636.7 1116 636.3 1150.8 624.7C1185.7 613 1220.3 590 1255.2 595.8C1290 601.7 1325 636.3 1342.5 653.7L1360 671L1360 769L1342.5 769C1325 769 1290 769 1255.2 769C1220.3 769 1185.7 769 1150.8 769C1116 769 1081 769 1046.2 769C1011.3 769 976.7 769 941.8 769C907 769 872 769 837 769C802 769 767 769 732.2 769C697.3 769 662.7 769 627.8 769C593 769 558 769 523 769C488 769 453 769 418.2 769C383.3 769 348.7 769 313.8 769C279 769 244 769 209.2 769C174.3 769 139.7 769 104.8 769C70 769 35 769 17.5 769L0 769Z" fill="#cf5563"></path><path d="M0 734L17.5 736.3C35 738.7 70 743.3 104.8 746C139.7 748.7 174.3 749.3 209.2 748.2C244 747 279 744 313.8 735.8C348.7 727.7 383.3 714.3 418.2 697.8C453 681.3 488 661.7 523 648.3C558 635 593 628 627.8 628.8C662.7 629.7 697.3 638.3 732.2 653.3C767 668.3 802 689.7 837 689.3C872 689 907 667 941.8 666.2C976.7 665.3 1011.3 685.7 1046.2 685.5C1081 685.3 1116 664.7 1150.8 669.3C1185.7 674 1220.3 704 1255.2 716C1290 728 1325 722 1342.5 719L1360 716L1360 769L1342.5 769C1325 769 1290 769 1255.2 769C1220.3 769 1185.7 769 1150.8 769C1116 769 1081 769 1046.2 769C1011.3 769 976.7 769 941.8 769C907 769 872 769 837 769C802 769 767 769 732.2 769C697.3 769 662.7 769 627.8 769C593 769 558 769 523 769C488 769 453 769 418.2 769C383.3 769 348.7 769 313.8 769C279 769 244 769 209.2 769C174.3 769 139.7 769 104.8 769C70 769 35 769 17.5 769L0 769Z" fill="#fa7268"></path></svg>