<svg id="visual" viewBox="0 0 900 600" width="900" height="600" xmlns="http://www.w3.org/2000/svg" xmlns:xlink="http://www.w3.org/1999/xlink" version="1.1"><rect x="0" y="0" width="900" height="600" fill="#aa9feb"></rect><path d="M0 191L6.5 173C13 155 26 119 39 104.2C52 89.3 65 95.7 78 94.5C91 93.3 104 84.7 117.2 77C130.3 69.3 143.7 62.7 156.8 60C170 57.3 183 58.7 196 65.5C209 72.3 222 84.7 235 86.3C248 88 261 79 274 73.8C287 68.7 300 67.3 313 82.8C326 98.3 339 130.7 352 144.5C365 158.3 378 153.7 391 154C404 154.3 417 159.7 430.2 166.7C443.3 173.7 456.7 182.3 469.8 166.7C483 151 496 111 509 97.2C522 83.3 535 95.7 548 108.5C561 121.3 574 134.7 587 137.2C600 139.7 613 131.3 626 118.5C639 105.7 652 88.3 665 85.2C678 82 691 93 704 95.3C717 97.7 730 91.3 743.2 85C756.3 78.7 769.7 72.3 782.8 75.2C796 78 809 90 822 92C835 94 848 86 861 83.3C874 80.7 887 83.3 893.5 84.7L900 86L900 601L893.5 601C887 601 874 601 861 601C848 601 835 601 822 601C809 601 796 601 782.8 601C769.7 601 756.3 601 743.2 601C730 601 717 601 704 601C691 601 678 601 665 601C652 601 639 601 626 601C613 601 600 601 587 601C574 601 561 601 548 601C535 601 522 601 509 601C496 601 483 601 469.8 601C456.7 601 443.3 601 430.2 601C417 601 404 601 391 601C378 601 365 601 352 601C339 601 326 601 313 601C300 601 287 601 274 601C261 601 248 601 235 601C222 601 209 601 196 601C183 601 170 601 156.8 601C143.7 601 130.3 601 117.2 601C104 601 91 601 78 601C65 601 52 601 39 601C26 601 13 601 6.5 601L0 601Z" fill="#6600ff"></path><path d="M0 146L6.5 145.2C13 144.3 26 142.7 39 147.8C52 153 65 165 78 172.7C91 180.3 104 183.7 117.2 189.3C130.3 195 143.7 203 156.8 202.8C170 202.7 183 194.3 196 179.8C209 165.3 222 144.7 235 150.3C248 156 261 188 274 190.2C287 192.3 300 164.7 313 163.3C326 162 339 187 352 203.2C365 219.3 378 226.7 391 230.2C404 233.7 417 233.3 430.2 231C443.3 228.7 456.7 224.3 469.8 208.2C483 192 496 164 509 148.7C522 133.3 535 130.7 548 132.2C561 133.7 574 139.3 587 155.7C600 172 613 199 626 211C639 223 652 220 665 217.8C678 215.7 691 214.3 704 201.5C717 188.7 730 164.3 743.2 164C756.3 163.7 769.7 187.3 782.8 184.7C796 182 809 153 822 141.2C835 129.3 848 134.7 861 136.2C874 137.7 887 135.3 893.5 134.2L900 133L900 601L893.5 601C887 601 874 601 861 601C848 601 835 601 822 601C809 601 796 601 782.8 601C769.7 601 756.3 601 743.2 601C730 601 717 601 704 601C691 601 678 601 665 601C652 601 639 601 626 601C613 601 600 601 587 601C574 601 561 601 548 601C535 601 522 601 509 601C496 601 483 601 469.8 601C456.7 601 443.3 601 430.2 601C417 601 404 601 391 601C378 601 365 601 352 601C339 601 326 601 313 601C300 601 287 601 274 601C261 601 248 601 235 601C222 601 209 601 196 601C183 601 170 601 156.8 601C143.7 601 130.3 601 117.2 601C104 601 91 601 78 601C65 601 52 601 39 601C26 601 13 601 6.5 601L0 601Z" fill="#8203fe"></path><path d="M0 178L6.5 190.8C13 203.7 26 229.3 39 242.2C52 255 65 255 78 260.8C91 266.7 104 278.3 117.2 271C130.3 263.7 143.7 237.3 156.8 216.8C170 196.3 183 181.7 196 193.8C209 206 222 245 235 263.3C248 281.7 261 279.3 274 270.8C287 262.3 300 247.7 313 236.2C326 224.7 339 216.3 352 217.3C365 218.3 378 228.7 391 224C404 219.3 417 199.7 430.2 209.5C443.3 219.3 456.7 258.7 469.8 267.7C483 276.7 496 255.3 509 249.7C522 244 535 254 548 246C561 238 574 212 587 215.3C600 218.7 613 251.3 626 250.3C639 249.3 652 214.7 665 214.2C678 213.7 691 247.3 704 262.2C717 277 730 273 743.2 259.3C756.3 245.7 769.7 222.3 782.8 223C796 223.7 809 248.3 822 249C835 249.7 848 226.3 861 221C874 215.7 887 228.3 893.5 234.7L900 241L900 601L893.5 601C887 601 874 601 861 601C848 601 835 601 822 601C809 601 796 601 782.8 601C769.7 601 756.3 601 743.2 601C730 601 717 601 704 601C691 601 678 601 665 601C652 601 639 601 626 601C613 601 600 601 587 601C574 601 561 601 548 601C535 601 522 601 509 601C496 601 483 601 469.8 601C456.7 601 443.3 601 430.2 601C417 601 404 601 391 601C378 601 365 601 352 601C339 601 326 601 313 601C300 601 287 601 274 601C261 601 248 601 235 601C222 601 209 601 196 601C183 601 170 601 156.8 601C143.7 601 130.3 601 117.2 601C104 601 91 601 78 601C65 601 52 601 39 601C26 601 13 601 6.5 601L0 601Z" fill="#990cfc"></path><path d="M0 336L6.5 327.8C13 319.7 26 303.3 39 291.5C52 279.7 65 272.3 78 262C91 251.7 104 238.3 117.2 239.5C130.3 240.7 143.7 256.3 156.8 261.8C170 267.3 183 262.7 196 270.7C209 278.7 222 299.3 235 297.7C248 296 261 272 274 276C287 280 300 312 313 313C326 314 339 284 352 266.5C365 249 378 244 391 250.7C404 257.3 417 275.7 430.2 278.3C443.3 281 456.7 268 469.8 264.5C483 261 496 267 509 278.7C522 290.3 535 307.7 548 316C561 324.3 574 323.7 587 320.8C600 318 613 313 626 314C639 315 652 322 665 319.5C678 317 691 305 704 306.7C717 308.3 730 323.7 743.2 317.5C756.3 311.3 769.7 283.7 782.8 269.8C796 256 809 256 822 265.2C835 274.3 848 292.7 861 302.7C874 312.7 887 314.3 893.5 315.2L900 316L900 601L893.5 601C887 601 874 601 861 601C848 601 835 601 822 601C809 601 796 601 782.8 601C769.7 601 756.3 601 743.2 601C730 601 717 601 704 601C691 601 678 601 665 601C652 601 639 601 626 601C613 601 600 601 587 601C574 601 561 601 548 601C535 601 522 601 509 601C496 601 483 601 469.8 601C456.7 601 443.3 601 430.2 601C417 601 404 601 391 601C378 601 365 601 352 601C339 601 326 601 313 601C300 601 287 601 274 601C261 601 248 601 235 601C222 601 209 601 196 601C183 601 170 601 156.8 601C143.7 601 130.3 601 117.2 601C104 601 91 601 78 601C65 601 52 601 39 601C26 601 13 601 6.5 601L0 601Z" fill="#ac17fb"></path><path d="M0 377L6.5 373.8C13 370.7 26 364.3 39 361.8C52 359.3 65 360.7 78 355C91 349.3 104 336.7 117.2 340.7C130.3 344.7 143.7 365.3 156.8 370.8C170 376.3 183 366.7 196 365C209 363.3 222 369.7 235 357.7C248 345.7 261 315.3 274 302.3C287 289.3 300 293.7 313 297.2C326 300.7 339 303.3 352 308.3C365 313.3 378 320.7 391 324.2C404 327.7 417 327.3 430.2 337.8C443.3 348.3 456.7 369.7 469.8 376.7C483 383.7 496 376.3 509 370.8C522 365.3 535 361.7 548 364.8C561 368 574 378 587 370.3C600 362.7 613 337.3 626 331.8C639 326.3 652 340.7 665 339.8C678 339 691 323 704 316.2C717 309.3 730 311.7 743.2 314.2C756.3 316.7 769.7 319.3 782.8 323.5C796 327.7 809 333.3 822 337.3C835 341.3 848 343.7 861 336.8C874 330 887 314 893.5 306L900 298L900 601L893.5 601C887 601 874 601 861 601C848 601 835 601 822 601C809 601 796 601 782.8 601C769.7 601 756.3 601 743.2 601C730 601 717 601 704 601C691 601 678 601 665 601C652 601 639 601 626 601C613 601 600 601 587 601C574 601 561 601 548 601C535 601 522 601 509 601C496 601 483 601 469.8 601C456.7 601 443.3 601 430.2 601C417 601 404 601 391 601C378 601 365 601 352 601C339 601 326 601 313 601C300 601 287 601 274 601C261 601 248 601 235 601C222 601 209 601 196 601C183 601 170 601 156.8 601C143.7 601 130.3 601 117.2 601C104 601 91 601 78 601C65 601 52 601 39 601C26 601 13 601 6.5 601L0 601Z" fill="#be22fa"></path><path d="M0 358L6.5 365.5C13 373 26 388 39 387.3C52 386.7 65 370.3 78 375.5C91 380.7 104 407.3 117.2 420.7C130.3 434 143.7 434 156.8 418.5C170 403 183 372 196 368.8C209 365.7 222 390.3 235 402.2C248 414 261 413 274 413.3C287 413.7 300 415.3 313 419.5C326 423.7 339 430.3 352 428.8C365 427.3 378 417.7 391 417.5C404 417.3 417 426.7 430.2 421.3C443.3 416 456.7 396 469.8 380.7C483 365.3 496 354.7 509 358.7C522 362.7 535 381.3 548 391.8C561 402.3 574 404.7 587 398.7C600 392.7 613 378.3 626 375.8C639 373.3 652 382.7 665 394.7C678 406.7 691 421.3 704 413.5C717 405.7 730 375.3 743.2 373.3C756.3 371.3 769.7 397.7 782.8 406.5C796 415.3 809 406.7 822 394.3C835 382 848 366 861 366.3C874 366.7 887 383.3 893.5 391.7L900 400L900 601L893.5 601C887 601 874 601 861 601C848 601 835 601 822 601C809 601 796 601 782.8 601C769.7 601 756.3 601 743.2 601C730 601 717 601 704 601C691 601 678 601 665 601C652 601 639 601 626 601C613 601 600 601 587 601C574 601 561 601 548 601C535 601 522 601 509 601C496 601 483 601 469.8 601C456.7 601 443.3 601 430.2 601C417 601 404 601 391 601C378 601 365 601 352 601C339 601 326 601 313 601C300 601 287 601 274 601C261 601 248 601 235 601C222 601 209 601 196 601C183 601 170 601 156.8 601C143.7 601 130.3 601 117.2 601C104 601 91 601 78 601C65 601 52 601 39 601C26 601 13 601 6.5 601L0 601Z" fill="#ce2df9"></path><path d="M0 455L6.5 452.3C13 449.7 26 444.3 39 434C52 423.7 65 408.3 78 411.8C91 415.3 104 437.7 117.2 440.7C130.3 443.7 143.7 427.3 156.8 419.3C170 411.3 183 411.7 196 410C209 408.3 222 404.7 235 415.7C248 426.7 261 452.3 274 458.7C287 465 300 452 313 441.7C326 431.3 339 423.7 352 429.3C365 435 378 454 391 455.7C404 457.3 417 441.7 430.2 438.8C443.3 436 456.7 446 469.8 453.3C483 460.7 496 465.3 509 457.2C522 449 535 428 548 420.3C561 412.7 574 418.3 587 417.5C600 416.7 613 409.3 626 414.3C639 419.3 652 436.7 665 440.5C678 444.3 691 434.7 704 424.2C717 413.7 730 402.3 743.2 399.8C756.3 397.3 769.7 403.7 782.8 413.8C796 424 809 438 822 442.2C835 446.3 848 440.7 861 434.7C874 428.7 887 422.3 893.5 419.2L900 416L900 601L893.5 601C887 601 874 601 861 601C848 601 835 601 822 601C809 601 796 601 782.8 601C769.7 601 756.3 601 743.2 601C730 601 717 601 704 601C691 601 678 601 665 601C652 601 639 601 626 601C613 601 600 601 587 601C574 601 561 601 548 601C535 601 522 601 509 601C496 601 483 601 469.8 601C456.7 601 443.3 601 430.2 601C417 601 404 601 391 601C378 601 365 601 352 601C339 601 326 601 313 601C300 601 287 601 274 601C261 601 248 601 235 601C222 601 209 601 196 601C183 601 170 601 156.8 601C143.7 601 130.3 601 117.2 601C104 601 91 601 78 601C65 601 52 601 39 601C26 601 13 601 6.5 601L0 601Z" fill="#dd38f8"></path><path d="M0 520L6.5 519.8C13 519.7 26 519.3 39 507.7C52 496 65 473 78 464.3C91 455.7 104 461.3 117.2 466C130.3 470.7 143.7 474.3 156.8 474.5C170 474.7 183 471.3 196 478.3C209 485.3 222 502.7 235 511.2C248 519.7 261 519.3 274 512.8C287 506.3 300 493.7 313 488.3C326 483 339 485 352 489.5C365 494 378 501 391 495.7C404 490.3 417 472.7 430.2 463.3C443.3 454 456.7 453 469.8 462.8C483 472.7 496 493.3 509 501.5C522 509.7 535 505.3 548 504.2C561 503 574 505 587 497.8C600 490.7 613 474.3 626 476.8C639 479.3 652 500.7 665 502.8C678 505 691 488 704 481.3C717 474.7 730 478.3 743.2 475.7C756.3 473 769.7 464 782.8 470.7C796 477.3 809 499.7 822 507.7C835 515.7 848 509.3 861 500C874 490.7 887 478.3 893.5 472.2L900 466L900 601L893.5 601C887 601 874 601 861 601C848 601 835 601 822 601C809 601 796 601 782.8 601C769.7 601 756.3 601 743.2 601C730 601 717 601 704 601C691 601 678 601 665 601C652 601 639 601 626 601C613 601 600 601 587 601C574 601 561 601 548 601C535 601 522 601 509 601C496 601 483 601 469.8 601C456.7 601 443.3 601 430.2 601C417 601 404 601 391 601C378 601 365 601 352 601C339 601 326 601 313 601C300 601 287 601 274 601C261 601 248 601 235 601C222 601 209 601 196 601C183 601 170 601 156.8 601C143.7 601 130.3 601 117.2 601C104 601 91 601 78 601C65 601 52 601 39 601C26 601 13 601 6.5 601L0 601Z" fill="#ea44f7"></path><path d="M0 566L6.5 559.8C13 553.7 26 541.3 39 531.2C52 521 65 513 78 517.5C91 522 104 539 117.2 541.3C130.3 543.7 143.7 531.3 156.8 531.5C170 531.7 183 544.3 196 551.2C209 558 222 559 235 559.5C248 560 261 560 274 552.3C287 544.7 300 529.3 313 529.8C326 530.3 339 546.7 352 549.2C365 551.7 378 540.3 391 533.2C404 526 417 523 430.2 525.8C443.3 528.7 456.7 537.3 469.8 546.3C483 555.3 496 564.7 509 565.5C522 566.3 535 558.7 548 552.3C561 546 574 541 587 536.5C600 532 613 528 626 525.7C639 523.3 652 522.7 665 525.3C678 528 691 534 704 540C717 546 730 552 743.2 553.7C756.3 555.3 769.7 552.7 782.8 550.3C796 548 809 546 822 548.8C835 551.7 848 559.3 861 553.3C874 547.3 887 527.7 893.5 517.8L900 508L900 601L893.5 601C887 601 874 601 861 601C848 601 835 601 822 601C809 601 796 601 782.8 601C769.7 601 756.3 601 743.2 601C730 601 717 601 704 601C691 601 678 601 665 601C652 601 639 601 626 601C613 601 600 601 587 601C574 601 561 601 548 601C535 601 522 601 509 601C496 601 483 601 469.8 601C456.7 601 443.3 601 430.2 601C417 601 404 601 391 601C378 601 365 601 352 601C339 601 326 601 313 601C300 601 287 601 274 601C261 601 248 601 235 601C222 601 209 601 196 601C183 601 170 601 156.8 601C143.7 601 130.3 601 117.2 601C104 601 91 601 78 601C65 601 52 601 39 601C26 601 13 601 6.5 601L0 601Z" fill="#f74ff7"></path></svg>